<?xml version="1.0" encoding="UTF-8"?>
<svg version="1.1" xmlns="http://www.w3.org/2000/svg" xmlns:xlink="http://www.w3.org/1999/xlink">
<defs></defs>
<symbol id="burgermenu" fill="none" viewBox="0 0 24 24"><path stroke="#fff" stroke-linecap="round" stroke-width="2" d="M4 18h16M4 12h16M4 6h16"/></symbol>
<symbol id="amazon" viewBox="0 0 128 128"><path fill="#201C1D" d="M44.634 57.361c-2.599 0-5.499 1.001-6.107 4.296-.064.351.167.517.391.567l2.663.32c.246-.014.414-.28.461-.533.228-1.134 1.16-1.669 2.201-1.669.563 0 1.193.193 1.527.71.381.576.354 1.359.354 2.024v.391c-1.582.182-3.666.292-5.147.958-1.709.76-2.912 2.307-2.912 4.58 0 2.913 1.785 4.366 4.083 4.366 1.94 0 3.013-.456 4.509-2.022.497.738.656 1.073 1.562 1.846a.55.55 0 0 0 .64-.071v.035c.545-.497 1.535-1.401 2.094-1.881.222-.187.174-.493 0-.746-.5-.707-1.029-1.276-1.029-2.592v-4.366c0-1.85.156-3.556-1.172-4.828-1.046-1.031-2.791-1.385-4.118-1.385m35.786 0c-2.6 0-5.498 1.001-6.106 4.296-.064.351.166.517.39.567l2.664.32c.246-.014.415-.28.461-.533.229-1.134 1.161-1.669 2.201-1.669.564 0 1.193.193 1.526.71.381.576.319 1.359.319 2.024v.391c-1.582.182-3.63.292-5.112.958-1.711.76-2.91 2.307-2.91 4.58 0 2.913 1.785 4.366 4.082 4.366 1.938 0 3.011-.456 4.509-2.022.495.738.656 1.073 1.563 1.846a.55.55 0 0 0 .639-.071v.035c.546-.497 1.537-1.401 2.095-1.881.222-.187.171-.493 0-.746-.5-.707-1.03-1.276-1.03-2.592v-4.366c0-1.85.12-3.556-1.206-4.828-1.05-1.031-2.759-1.385-4.085-1.385m-20.13.142c-1.68 0-2.924.848-3.585 2.663h-.036v-1.882a.534.534 0 0 0-.496-.497h-2.557a.54.54 0 0 0-.533.533v14.378a.554.554 0 0 0 .498.497h2.733a.537.537 0 0 0 .532-.533v-7.633c0-1.664-.08-3.94 1.882-3.94 1.937 0 1.668 2.339 1.668 3.94v7.633c0 .271.222.515.498.533h2.733c.29 0 .532-.243.532-.533v-7.633c0-.816-.033-2.006.248-2.733s.971-1.207 1.634-1.207c.789 0 1.394.275 1.598 1.242.126.575.071 2.094.071 2.698v7.633c0 .271.222.515.496.533h2.734c.29 0 .532-.243.532-.533v-9.088c0-1.545.154-3.298-.71-4.509-.765-1.088-2.015-1.563-3.16-1.563-1.605 0-3.101.848-3.763 2.663-.764-1.814-1.842-2.662-3.549-2.662m46.472 0c-3.949 0-6.142 3.473-6.142 7.953 0 4.448 2.167 8.022 6.142 8.022 3.823 0 6.249-3.492 6.249-7.881 0-4.537-2.198-8.094-6.249-8.094m15.585 0c-1.887 0-2.966.943-3.728 2.911h-.035v-2.201c-.049-.222-.258-.377-.497-.39h-2.521a.525.525 0 0 0-.533.461v14.378c0 .271.225.515.497.533h2.699a.54.54 0 0 0 .531-.533v-7.739c0-.97.083-1.855.463-2.733.306-.697.899-1.137 1.562-1.137 1.883 0 1.703 2.295 1.703 3.87v7.811a.545.545 0 0 0 .498.462h2.733a.54.54 0 0 0 .532-.462v-9.053c0-1.392.003-3.324-.71-4.474-.764-1.241-1.975-1.704-3.194-1.704m-32.803.249c-.278 0-.497.22-.498.532v2.059c.001.31.213.531.498.533h4.686l-5.361 7.916c-.326.511-.354 1.089-.354 1.421v2.095c0 .302.328.63.639.461 3.056-1.668 6.717-1.52 9.479-.035.336.183.675-.16.675-.462V70.07a.93.93 0 0 0-.497-.781c-1.568-.901-3.388-1.178-5.111-1.136l4.65-6.815c.43-.613.67-.981.674-1.279v-1.774c0-.306-.209-.532-.496-.532zm17.218 2.698c.865 0 1.504.386 1.811 1.384.354 1.152.391 2.588.391 3.799 0 1.846-.086 4.899-2.201 4.899-2.139 0-2.13-3.78-2.13-5.538-.001-1.753.117-4.544 2.129-4.544m-60.673 5.254v.604c0 1.092.04 2.01-.497 2.981-.434.79-1.116 1.279-1.881 1.279-1.045 0-1.668-.849-1.668-2.06-.001-2.387 2.074-2.804 4.046-2.804m35.786 0v.604c0 1.092.04 2.01-.496 2.981-.435.79-1.112 1.279-1.882 1.279-1.047 0-1.669-.849-1.669-2.06 0-2.387 2.073-2.804 4.047-2.804"/><path d="M99.59 73.656v2.06h1.386v-2.06zm-40.152.356v14.662h1.278V87.36c.272.521.582.91.958 1.171.376.262.806.391 1.277.391.939 0 1.75-.479 2.45-1.455s1.065-2.392 1.065-4.189c0-1.178-.151-2.154-.462-2.981q-.466-1.238-1.242-1.847c-.519-.406-1.107-.639-1.739-.639-.452 0-.874.118-1.244.354-.368.236-.666.622-.958 1.101v-5.254zm13.135 3.443c-.962 0-1.728.285-2.271.852s-.815 1.296-.815 2.202c0 .525.115.972.318 1.384.202.413.49.748.852.994.364.246 1.09.57 2.166.923.745.24 1.19.444 1.385.604.281.233.427.538.427.959 0 .486-.17.892-.498 1.207-.328.317-.786.461-1.385.461-.6 0-1.094-.168-1.455-.532-.362-.364-.557-.918-.64-1.668l-1.384.283c.313 2.278 1.449 3.41 3.408 3.408 1.045 0 1.844-.295 2.449-.923s.924-1.471.924-2.485c0-.548-.098-1.022-.284-1.419a2.25 2.25 0 0 0-.782-.924c-.336-.229-1.089-.536-2.236-.923-.834-.292-1.321-.506-1.49-.64q-.427-.335-.427-.922c0-.4.133-.739.427-.995.294-.255.747-.39 1.349-.39q1.588.001 1.774 1.739l1.35-.213c-.094-.732-.253-1.312-.496-1.705a2.67 2.67 0 0 0-1.065-.958c-.465-.232-.992-.319-1.601-.319m8.486 0c-1.109 0-2.046.457-2.77 1.42-.723.963-1.063 2.358-1.063 4.189 0 1.764.348 3.146 1.063 4.083.718.934 1.646 1.384 2.806 1.384.921 0 1.685-.276 2.307-.852.624-.575 1.077-1.423 1.313-2.557l-1.42-.248c-.407 1.451-1.16 2.163-2.2 2.165-.664 0-1.206-.281-1.669-.887q-.697-.911-.78-2.698h6.105v-.497c0-1.792-.357-3.137-1.065-4.083-.709-.945-1.569-1.419-2.627-1.419m8.414 0c-.331 0-.621.112-.888.355-.267.242-.567.744-.888 1.49v-1.633h-1.243v10.615h1.385v-5.538c0-.772.074-1.516.249-2.201.1-.394.289-.703.532-.923s.523-.32.816-.32c.326 0 .65.131.994.391l.462-1.668c-.482-.386-.955-.568-1.419-.568m16.969 0c-1.096 0-1.999.462-2.699 1.385-.696.923-1.063 2.309-1.063 4.153 0 1.831.372 3.218 1.063 4.154.693.934 1.559 1.384 2.628 1.384.884 0 1.642-.328 2.272-.994s1.014-1.646 1.172-2.911l-1.35-.213c-.101.905-.336 1.557-.71 1.988-.373.43-.823.639-1.349.639-.67 0-1.241-.313-1.67-.958-.427-.646-.638-1.68-.638-3.124 0-1.4.227-2.41.674-3.053.448-.644 1.021-.994 1.704-.994q.685 0 1.172.531c.327.356.543.918.674 1.634l1.351-.283c-.162-1.119-.521-1.962-1.102-2.521-.58-.56-1.284-.817-2.129-.817m7.917 0c-1.11 0-2.046.457-2.77 1.42-.723.963-1.065 2.358-1.065 4.189 0 1.764.349 3.146 1.065 4.083.719.934 1.646 1.384 2.805 1.384.918 0 1.685-.276 2.308-.852.622-.575 1.075-1.423 1.314-2.557l-1.42-.248c-.41 1.451-1.128 2.163-2.166 2.165-.664 0-1.241-.281-1.704-.887q-.696-.911-.781-2.698h6.106v-.497c0-1.792-.357-3.137-1.065-4.083-.706-.945-1.568-1.419-2.627-1.419m8.202 0c-.966 0-1.729.285-2.272.852-.545.566-.817 1.296-.817 2.202 0 .525.082.972.284 1.384.2.413.489.748.853.994.361.246 1.09.57 2.166.923.743.24 1.226.444 1.42.604.281.233.426.538.426.959 0 .486-.168.892-.497 1.207-.326.317-.785.461-1.384.461-.602 0-1.094-.168-1.456-.532s-.595-.918-.675-1.668l-1.384.283c.313 2.278 1.446 3.41 3.407 3.408 1.047 0 1.881-.295 2.485-.923s.922-1.471.922-2.485q-.001-.823-.282-1.419a2.3 2.3 0 0 0-.817-.924c-.336-.229-1.054-.536-2.2-.923-.835-.292-1.357-.506-1.527-.64q-.425-.335-.426-.922c0-.4.167-.739.462-.995.294-.255.75-.39 1.35-.39q1.587.001 1.774 1.739l1.349-.213c-.094-.732-.252-1.312-.497-1.705a2.66 2.66 0 0 0-1.064-.958c-.463-.232-.994-.319-1.6-.319m-31.668.213 3.09 10.615h1.313l3.089-10.615h-1.42l-1.811 6.497c-.219.785-.413 1.464-.533 2.023-.15-.705-.296-1.446-.496-2.166l-1.775-6.354zm8.697 0v10.615h1.386V77.668zm-45.513.143c-1.098 0-1.981.492-2.697 1.455-.717.963-1.102 2.358-1.102 4.189q0 2.647 1.065 4.047c.709.935 1.657 1.42 2.806 1.42.911 0 1.655-.312 2.271-.888.616-.575 1.042-1.423 1.279-2.556l-1.385-.213c-.404 1.451-1.136 2.163-2.165 2.165-.659 0-1.21-.281-1.669-.888-.46-.606-.727-1.506-.781-2.697h6.035l.036-.497c0-1.792-.364-3.172-1.065-4.119-.701-.945-1.581-1.418-2.628-1.418m-15.584.248 2.485 10.615h1.455l1.634-8.165.284 1.81 1.313 6.355h1.42l2.521-10.615h-1.313L46.906 84.2l-.462 2.06-.426-2.06-1.207-6.142h-1.42l-1.278 6.213-.426 2.201-.496-2.272-1.279-6.142h-1.419zm42.53.852q1.035.001 1.704.994c.306.452.506 1.14.567 2.059h-4.58c.044-.932.307-1.65.747-2.201.44-.55.943-.852 1.562-.852m33.3 0q1.034.001 1.704.994c.308.452.506 1.14.569 2.059h-4.581c.044-.932.308-1.65.746-2.201.437-.55.943-.852 1.562-.852m-60.246.39c.682 0 1.23.334 1.67.995.304.452.505 1.14.567 2.059h-4.51c.043-.932.275-1.687.711-2.236.434-.552.948-.818 1.562-.818m8.805 0c.615 0 1.14.342 1.563.995.423.652.604 1.659.604 3.053 0 1.357-.2 2.37-.64 3.053-.439.684-.96 1.029-1.526 1.029q-.623.002-1.136-.426c-.344-.286-.595-.696-.782-1.242-.186-.546-.283-1.387-.283-2.485 0-1.294.231-2.263.674-2.947s.96-1.03 1.526-1.03"/><path fill="#F7A80D" d="m18.594 68.048-5.29 2.271 4.899 2.095 5.681-2.095zm-7.952 2.839-.178 10.226 7.74 3.408V73.905zm15.904 0-6.994 2.663v10.012l6.994-2.84zm8.343-31.809-5.326 2.271 4.935 2.095 5.681-2.095zm-7.385 3.018V52.32l6.604 1.917.213-9.302zm14.769.567-6.249 2.663v10.047l6.249-2.84zM9.877 53.468l-5.29 2.272 4.899 2.095 5.68-2.095zm-7.951 2.841-.178 10.224 7.739 3.408V59.326zm15.904 0-6.994 2.662v10.012l6.994-2.84zm9.088-3.218-5.29 2.271 4.899 2.094 5.68-2.094zm-7.952 2.839-.177 10.225 7.739 3.408V58.948zm15.905 0-6.994 2.663v10.012l6.994-2.841zm16.662-16.852-5.289 2.271 4.899 2.095 5.681-2.095zm-7.952 2.84-.178 10.225 7.74 3.407V44.936zm15.904 0-6.994 2.663v10.011l6.994-2.84z"/></symbol>
<symbol id="docker" viewBox="0 0 128 128"><path fill="#3A4D54" fill-rule="evenodd" d="M73.8 50.8h11.3v11.5h5.7c2.6 0 5.3-.5 7.8-1.3 1.2-.4 2.6-1 3.8-1.7-1.6-2.1-2.4-4.7-2.6-7.3-.3-3.5.4-8.1 2.8-10.8l1.2-1.4 1.4 1.1c3.6 2.9 6.5 6.8 7.1 11.4 4.3-1.3 9.3-1 13.1 1.2l1.5.9-.8 1.6c-3.2 6.2-9.9 8.2-16.4 7.8-9.8 24.3-31 35.8-56.8 35.8-13.3 0-25.5-5-32.5-16.8l-.1-.2-1-2.1c-2.4-5.2-3.1-10.9-2.6-16.6l.2-1.7h9.6V50.8h11.3V39.6h22.5V28.3h13.5z" clip-rule="evenodd"/><path fill="#00AADA" d="M110.4 55.1c.8-5.9-3.6-10.5-6.4-12.7-3.1 3.6-3.6 13.2 1.3 17.2-2.8 2.4-8.5 4.7-14.5 4.7H18.6c-.6 6.2.5 11.9 3 16.8l.8 1.5c.5.9 1.1 1.7 1.7 2.6 3 .2 5.7.3 8.2.2 4.9-.1 8.9-.7 12-1.7.5-.2.9.1 1.1.5.2.5-.1.9-.5 1.1-.4.1-.8.3-1.3.4-2.4.7-5 1.1-8.3 1.3h-.6c-1.3.1-2.7.1-4.2.1-1.6 0-3.1 0-4.9-.1 6 6.8 15.4 10.8 27.2 10.8 25 0 46.2-11.1 55.5-35.9 6.7.7 13.1-1 16-6.7-4.5-2.7-10.5-1.8-13.9-.1"/><path fill="#28B8EB" d="M110.4 55.1c.8-5.9-3.6-10.5-6.4-12.7-3.1 3.6-3.6 13.2 1.3 17.2-2.8 2.4-8.5 4.7-14.5 4.7h-68c-.3 9.5 3.2 16.7 9.5 21 4.9-.1 8.9-.7 12-1.7.5-.2.9.1 1.1.5.2.5-.1.9-.5 1.1-.4.1-.8.3-1.3.4-2.4.7-5.2 1.2-8.5 1.4l-.1-.1c8.5 4.4 20.8 4.3 35-1.1 15.8-6.1 30.6-17.7 40.9-30.9-.2.1-.4.1-.5.2"/><path fill="#028BB8" d="M18.7 71.8c.4 3.3 1.4 6.4 2.9 9.3l.8 1.5c.5.9 1.1 1.7 1.7 2.6 3 .2 5.7.3 8.2.2 4.9-.1 8.9-.7 12-1.7.5-.2.9.1 1.1.5.2.5-.1.9-.5 1.1-.4.1-.8.3-1.3.4-2.4.7-5.2 1.2-8.5 1.4h-.4c-1.3.1-2.7.1-4.1.1-1.6 0-3.2 0-4.9-.1 6 6.8 15.5 10.8 27.3 10.8 21.4 0 40-8.1 50.8-26H18.7z"/><path fill="#019BC6" d="M23.5 71.8c1.3 5.8 4.3 10.4 8.8 13.5 4.9-.1 8.9-.7 12-1.7.5-.2.9.1 1.1.5.2.5-.1.9-.5 1.1-.4.1-.8.3-1.3.4-2.4.7-5.2 1.2-8.6 1.4 8.5 4.4 20.8 4.3 34.9-1.1 8.5-3.3 16.8-8.2 24.2-14.1z"/><path fill="#00ACD3" fill-rule="evenodd" d="M28.4 52.7h9.8v9.8h-9.8zm.8.8h.8v8.1h-.8zm1.4 0h.8v8.1h-.8zm1.5 0h.8v8.1h-.8zm1.5 0h.8v8.1h-.8zm1.5 0h.8v8.1h-.8zm1.5 0h.8v8.1h-.8zm3-12h9.8v9.8h-9.8zm.9.8h.8v8.1h-.8zm1.4 0h.8v8.1h-.8zm1.5 0h.8v8.1h-.8zm1.5 0h.8v8.1h-.8zm1.4 0h.8v8.1h-.8zm1.5 0h.8v8.1h-.8z" clip-rule="evenodd"/><path fill="#23C2EE" fill-rule="evenodd" d="M39.6 52.7h9.8v9.8h-9.8zm.9.8h.8v8.1h-.8zm1.4 0h.8v8.1h-.8zm1.5 0h.8v8.1h-.8zm1.5 0h.8v8.1h-.8zm1.4 0h.8v8.1h-.8zm1.5 0h.8v8.1h-.8z" clip-rule="evenodd"/><path fill="#00ACD3" fill-rule="evenodd" d="M50.9 52.7h9.8v9.8h-9.8zm.8.8h.8v8.1h-.8zm1.5 0h.8v8.1h-.8zm1.5 0h.8v8.1h-.8zm1.4 0h.8v8.1h-.8zm1.5 0h.8v8.1h-.8zm1.5 0h.8v8.1h-.8z" clip-rule="evenodd"/><path fill="#23C2EE" fill-rule="evenodd" d="M50.9 41.5h9.8v9.8h-9.8zm.8.8h.8v8.1h-.8zm1.5 0h.8v8.1h-.8zm1.5 0h.8v8.1h-.8zm1.4 0h.8v8.1h-.8zm1.5 0h.8v8.1h-.8zm1.5 0h.8v8.1h-.8zm3.1 10.4H72v9.8h-9.8zm.8.8h.8v8.1H63zm1.5 0h.8v8.1h-.8zm1.4 0h.8v8.1h-.8zm1.5 0h.8v8.1h-.8zm1.5 0h.8v8.1h-.8zm1.5 0h.8v8.1h-.8z" clip-rule="evenodd"/><path fill="#00ACD3" fill-rule="evenodd" d="M62.2 41.5H72v9.8h-9.8zm.8.8h.8v8.1H63zm1.5 0h.8v8.1h-.8zm1.4 0h.8v8.1h-.8zm1.5 0h.8v8.1h-.8zm1.5 0h.8v8.1h-.8zm1.5 0h.8v8.1h-.8z" clip-rule="evenodd"/><path fill="#23C2EE" fill-rule="evenodd" d="M62.2 30.2H72V40h-9.8zm.8.8h.8v8.1H63zm1.5 0h.8v8.1h-.8zm1.4 0h.8v8.1h-.8zm1.5 0h.8v8.1h-.8zm1.5 0h.8v8.1h-.8zm1.5 0h.8v8.1h-.8z" clip-rule="evenodd"/><path fill="#00ACD3" fill-rule="evenodd" d="M73.5 52.7h9.8v9.8h-9.8zm.8.8h.8v8.1h-.8zm1.4 0h.8v8.1h-.8zm1.5 0h.8v8.1h-.8zm1.5 0h.8v8.1h-.8zm1.5 0h.8v8.1h-.8zm1.5 0h.8v8.1h-.8z" clip-rule="evenodd"/><path fill="#D4EEF1" fill-rule="evenodd" d="M48.8 78.3c1.5 0 2.7 1.2 2.7 2.7s-1.2 2.7-2.7 2.7-2.7-1.2-2.7-2.7 1.2-2.7 2.7-2.7" clip-rule="evenodd"/><path fill="#3A4D54" fill-rule="evenodd" d="M48.8 79.1c.2 0 .5 0 .7.1-.2.1-.4.4-.4.7 0 .4.4.8.8.8.3 0 .6-.2.7-.4.1.2.1.5.1.7 0 1.1-.9 1.9-1.9 1.9-1.1 0-1.9-.9-1.9-1.9s.8-1.9 1.9-1.9M1.1 72.8h125.4c-2.7-.7-8.6-1.6-7.7-5.2-5 5.7-16.9 4-20 1.2-3.4 4.9-23 3-24.3-.8-4.2 5-17.3 5-21.5 0-1.4 3.8-21 5.7-24.3.8-3 2.8-15 4.5-20-1.2 1.1 3.5-4.9 4.5-7.6 5.2" clip-rule="evenodd"/><path fill="#BFDBE0" d="M56 97.8c-6.7-3.2-10.3-7.5-12.4-12.2-2.5.7-5.5 1.2-8.9 1.4-1.3.1-2.7.1-4.1.1-1.7 0-3.4 0-5.2-.1 6 6 13.6 10.7 27.5 10.8z"/><path fill="#D4EEF1" d="M46.1 89.9c-.9-1.3-1.8-2.8-2.5-4.3-2.5.7-5.5 1.2-8.9 1.4 2.3 1.2 5.7 2.4 11.4 2.9"/></symbol>
<symbol id="github" viewBox="0 0 128 128"><g fill="#fff"><path fill-rule="evenodd" d="M64 5.103c-33.347 0-60.388 27.035-60.388 60.388 0 26.682 17.303 49.317 41.297 57.303 3.017.56 4.125-1.31 4.125-2.905 0-1.44-.056-6.197-.082-11.243-16.8 3.653-20.345-7.125-20.345-7.125-2.747-6.98-6.705-8.836-6.705-8.836-5.48-3.748.413-3.67.413-3.67 6.063.425 9.257 6.223 9.257 6.223 5.386 9.23 14.127 6.562 17.573 5.02.542-3.903 2.107-6.568 3.834-8.076-13.413-1.525-27.514-6.704-27.514-29.843 0-6.593 2.36-11.98 6.223-16.21-.628-1.52-2.695-7.662.584-15.98 0 0 5.07-1.623 16.61 6.19C53.7 35 58.867 34.327 64 34.304c5.13.023 10.3.694 15.127 2.033 11.526-7.813 16.59-6.19 16.59-6.19 3.287 8.317 1.22 14.46.593 15.98 3.872 4.23 6.215 9.617 6.215 16.21 0 23.194-14.127 28.3-27.574 29.796 2.167 1.874 4.097 5.55 4.097 11.183 0 8.08-.07 14.583-.07 16.572 0 1.607 1.088 3.49 4.148 2.897 23.98-7.994 41.263-30.622 41.263-57.294C124.388 32.14 97.35 5.104 64 5.104z" clip-rule="evenodd"/><path d="M26.484 91.806c-.133.3-.605.39-1.035.185-.44-.196-.685-.605-.543-.906.13-.31.603-.395 1.04-.188.44.197.69.61.537.91zm2.446 2.729c-.287.267-.85.143-1.232-.28-.396-.42-.47-.983-.177-1.254.298-.266.844-.14 1.24.28.394.426.472.984.17 1.255zm2.382 3.477c-.37.258-.976.017-1.35-.52-.37-.538-.37-1.183.01-1.44.373-.258.97-.025 1.35.507.368.545.368 1.19-.01 1.452zm3.261 3.361c-.33.365-1.036.267-1.552-.23-.527-.487-.674-1.18-.343-1.544.336-.366 1.045-.264 1.564.23.527.486.686 1.18.333 1.543zm4.5 1.951c-.147.473-.825.688-1.51.486-.683-.207-1.13-.76-.99-1.238.14-.477.823-.7 1.512-.485.683.206 1.13.756.988 1.237m4.943.361c.017.498-.563.91-1.28.92-.723.017-1.308-.387-1.315-.877 0-.503.568-.91 1.29-.924.717-.013 1.306.387 1.306.88zm4.598-.782c.086.485-.413.984-1.126 1.117-.7.13-1.35-.172-1.44-.653-.086-.498.422-.997 1.122-1.126.714-.123 1.354.17 1.444.663zm0 0"/></g></symbol>
<symbol id="dev" class="illustrations_image" data-imageid="designer-0" data-name="#340_web_developer_outline" style="width:267px" viewBox="0 0 400 600"><path fill="#68e1fd" d="M220.28 162.2h17.42a30.7 30.7 0 0 1 29.3 21.7l9.41 30.69a7.33 7.33 0 0 1-7 9.49h-80.9a7.33 7.33 0 0 1-7-9.49l9.41-30.69a30.7 30.7 0 0 1 29.36-21.7" class="target-color"/><path fill="#093f68" d="M269.44 225.08h-80.9a8.34 8.34 0 0 1-8-10.78l9.46-30.69a31.54 31.54 0 0 1 30.3-22.41h17.4a31.54 31.54 0 0 1 30.3 22.41l9.41 30.69a8.34 8.34 0 0 1-8 10.78Zm-49.16-61.88a29.55 29.55 0 0 0-28.39 21l-9.41 30.69a6.35 6.35 0 0 0 6.06 8.2h80.9a6.35 6.35 0 0 0 6.06-8.2l-9.41-30.69a29.55 29.55 0 0 0-28.39-21Z"/><path fill="#ffc9b0" d="M223.67 158.74h10.64v6.12a4.52 4.52 0 0 1-4.52 4.52h-1.61a4.52 4.52 0 0 1-4.52-4.52v-6.12z"/><path fill="#093f68" d="M229.79 170.37h-1.6a5.52 5.52 0 0 1-5.52-5.51v-6.12a1 1 0 0 1 1-1h10.64a1 1 0 0 1 1 1v6.12a5.52 5.52 0 0 1-5.52 5.51m-5.12-10.63v5.12a3.52 3.52 0 0 0 3.52 3.51h1.6a3.52 3.52 0 0 0 3.52-3.51v-5.12Z"/><path fill="#725858" d="M192.27 129.23c-4.94-1.87-4.64-5.65-5.38-10.49a123 123 0 0 1-1.37-14.48c-.19-5.51 0-11.17 2.1-16.28 2.69-6.57 8-10.81 15.09-10.23-.21-9.68 5.6-18.76 15.89-19.31 16.49-.88 26 16.83 35.21 15.51s11.68-5.42 11.68-5.42a16.92 16.92 0 0 1-2 18.67s7.27-2.12 8.15 7.55-4.91 35.37-4.91 35.37l-6.57-1.12c-2.77-.49-6.23.19-9 .28l-20.61.64c-10.34.29-27.06 3.55-38.28-.69"/><path fill="#093f68" d="M207.13 132.38c-5.42 0-10.75-.53-15.22-2.22-4.79-1.82-5.23-5.28-5.74-9.29q-.12-1-.27-2a125 125 0 0 1-1.38-14.6c-.18-5.17-.06-11.21 2.18-16.68 2.85-7 8.17-10.91 14.7-10.91h.31c.22-9.31 5.93-18.68 16.84-19.26 9.59-.5 17 5.09 22.92 9.58 4.58 3.47 8.54 6.46 12.19 5.94 8.55-1.22 11-4.91 11-4.95a1 1 0 0 1 .86-.47 1 1 0 0 1 .86.49c.05.09 5.06 8.92-.76 18a6.83 6.83 0 0 1 3.48 1.14c2 1.4 3.25 3.92 3.57 7.51.89 9.72-4.68 34.62-4.92 35.68a1 1 0 0 1-1.15.76L260 130a23.7 23.7 0 0 0-5.87.08c-1 .1-2 .19-3 .22l-20.61.64c-2.57.08-5.59.35-8.78.63-4.51.36-9.6.81-14.61.81m-14.51-4.09c8.18 3.1 19.71 2.07 29 1.24 3.22-.29 6.27-.56 8.9-.64l20.61-.64c.87 0 1.82-.12 2.82-.21a25 25 0 0 1 6.4-.06c.35 0 1.49.25 5.65 1 1-4.68 5.44-25.75 4.68-34.13-.27-3-1.17-5-2.69-6a5.46 5.46 0 0 0-4.18-.66 1 1 0 0 1-1.11-.41 1 1 0 0 1 .06-1.18 15.72 15.72 0 0 0 2.5-16.24c-1.53 1.44-4.86 3.69-11.29 4.61-4.48.63-8.75-2.59-13.69-6.32-6-4.53-12.75-9.65-21.6-9.18-10.06.53-15.14 9.61-14.95 18.29a1 1 0 0 1-.32.75 1 1 0 0 1-.77.27c-6.24-.52-11.37 3-14.07 9.61-2.09 5.13-2.2 10.9-2 15.86a123 123 0 0 0 1.35 14.36c.11.71.2 1.38.28 2 .48 3.78.8 6.28 4.47 7.67Z"/><ellipse cx="198.59" cy="131.11" fill="#ffc9b0" rx="10.33" ry="8.9"/><path fill="#093f68" d="M198.59 141c-6.25 0-11.33-4.44-11.33-9.9s5.08-9.91 11.33-9.91 11.34 4.45 11.34 9.91-5.09 9.9-11.34 9.9m0-17.81c-5.14 0-9.33 3.55-9.33 7.91s4.19 7.9 9.33 7.9 9.34-3.54 9.34-7.9-4.19-7.9-9.34-7.9Z"/><ellipse cx="258.84" cy="131.11" fill="#ffc9b0" rx="10.33" ry="8.9"/><path fill="#093f68" d="M258.84 141c-6.25 0-11.34-4.44-11.34-9.9s5.09-9.91 11.34-9.91 11.33 4.45 11.33 9.91-5.08 9.9-11.33 9.9m0-17.81c-5.15 0-9.34 3.55-9.34 7.91s4.19 7.9 9.34 7.9 9.33-3.54 9.33-7.9-4.17-7.9-9.33-7.9Z"/><path fill="#ffc9b0" d="M229 160.13A31.17 31.17 0 0 1 197.82 129v-22.66c1.82 3 7.87 1.8 16.74-13.41 33.2 16.82 45.6 7.18 45.6 7.18V129A31.17 31.17 0 0 1 229 160.13"/><path fill="#093f68" d="M229 161.13A32.2 32.2 0 0 1 196.82 129v-22.66a1 1 0 0 1 1.86-.52 1.66 1.66 0 0 0 1.53.83c1.22 0 5.8-1.07 13.47-14.23A1 1 0 0 1 215 92c32.08 16.25 44.42 7.37 44.54 7.28a1 1 0 0 1 1.61.8V129A32.2 32.2 0 0 1 229 161.13m-30.17-52.72V129a30.17 30.17 0 0 0 60.34 0v-27.17c-4.32 2-17.59 5.68-44.21-7.59-5.52 9.27-10.73 14.38-14.7 14.41a3.4 3.4 0 0 1-1.44-.24ZM249 216.72a1 1 0 0 1-1-1v-36.58a1 1 0 0 1 2 0v36.58a1 1 0 0 1-1 1M209 216.72a1 1 0 0 1-1-1v-36.58a1 1 0 0 1 2 0v36.58a1 1 0 0 1-1 1"/><path fill="#093f68" d="M228.92 134.69a21 21 0 0 1-3.13-.26 1 1 0 0 1 .35-2 15.3 15.3 0 0 0 4.75 0c.2-.92-1-4.35-2.7-7.58A1 1 0 1 1 230 124c1.12 2.15 3.63 7.37 2.71 9.42a1.72 1.72 0 0 1-1.16 1 10.7 10.7 0 0 1-2.63.27M222 110.73h-15.28a2 2 0 1 1 0-4h15.29a2 2 0 0 1 0 4ZM250.25 110.73h-15.28a2 2 0 1 1 0-4h15.28a2 2 0 0 1 0 4"/><path fill="#fff" d="M205.39 116.21h18a2.56 2.56 0 0 1 2.56 2.56v1.67a8.63 8.63 0 0 1-8.63 8.63h-5.87a8.63 8.63 0 0 1-8.63-8.63v-1.67a2.56 2.56 0 0 1 2.57-2.56"/><path fill="#093f68" d="M217.33 130.08h-5.86a9.64 9.64 0 0 1-9.63-9.63v-1.68a3.56 3.56 0 0 1 3.55-3.56h18a3.57 3.57 0 0 1 3.56 3.56v1.68a9.64 9.64 0 0 1-9.62 9.63m-11.94-12.87a1.55 1.55 0 0 0-1.55 1.56v1.68a7.64 7.64 0 0 0 7.63 7.63h5.86a7.65 7.65 0 0 0 7.64-7.63v-1.68a1.56 1.56 0 0 0-1.56-1.56Z"/><path fill="#fff" d="M234.45 116.21h18a2.56 2.56 0 0 1 2.56 2.56v1.67a8.63 8.63 0 0 1-8.63 8.63h-5.87a8.63 8.63 0 0 1-8.63-8.63v-1.67a2.56 2.56 0 0 1 2.57-2.56"/><path fill="#093f68" d="M246.39 130.08h-5.86a9.64 9.64 0 0 1-9.64-9.63v-1.68a3.57 3.57 0 0 1 3.56-3.56h18a3.56 3.56 0 0 1 3.55 3.56v1.68a9.64 9.64 0 0 1-9.61 9.63m-11.94-12.87a1.56 1.56 0 0 0-1.56 1.56v1.68a7.65 7.65 0 0 0 7.64 7.63h5.86a7.64 7.64 0 0 0 7.63-7.63v-1.68a1.55 1.55 0 0 0-1.55-1.56ZM202.84 121.45H197a1 1 0 0 1 0-2h5.81a1 1 0 0 1 0 2Z"/><path fill="#093f68" d="M261.12 121.45h-5.8a1 1 0 0 1 0-2h5.8a1 1 0 0 1 0 2M231.89 121.45H226a1 1 0 0 1 0-2h5.92a1 1 0 0 1 0 2ZM228.33 144.33a28.9 28.9 0 0 1-10.44-1.91 1 1 0 0 1 .72-1.87 29.23 29.23 0 0 0 19.77 0 1 1 0 0 1 .77 1.85 30.6 30.6 0 0 1-10.82 1.93M256.41 208.32a1 1 0 0 1-1-.8 1 1 0 0 1 .78-1.18l11.06-2.26a1 1 0 0 1 .4 2l-11.06 2.25a.6.6 0 0 1-.18-.01M201.57 208.32a.6.6 0 0 1-.2 0L190.31 206a1 1 0 1 1 .4-2l11.06 2.26a1 1 0 0 1 .78 1.18 1 1 0 0 1-.98.88"/><path fill="#f56132" d="M200.76 187.36h56.34a4.78 4.78 0 0 1 4.78 4.78V225H196v-32.86a4.78 4.78 0 0 1 4.76-4.78"/><path fill="#093f68" d="M261.88 226H196a1 1 0 0 1-1-1v-32.86a5.78 5.78 0 0 1 5.78-5.78h56.32a5.78 5.78 0 0 1 5.78 5.78V225a1 1 0 0 1-1 1M197 224h63.9v-31.86a3.79 3.79 0 0 0-3.78-3.78h-56.36a3.79 3.79 0 0 0-3.78 3.78Z"/><path fill="#f56132" d="M192.78 225h72.31a4.82 4.82 0 0 1-4.82 4.82H197.6a4.82 4.82 0 0 1-4.82-4.82"/><path fill="#093f68" d="M260.26 230.84H197.6a5.83 5.83 0 0 1-5.82-5.82 1 1 0 0 1 1-1h72.3a1 1 0 0 1 1 1 5.83 5.83 0 0 1-5.82 5.82M193.91 226a3.83 3.83 0 0 0 3.69 2.82h62.66A3.83 3.83 0 0 0 264 226ZM228.19 188.36a1 1 0 0 1-1-1v-18a1 1 0 0 1 2 0v18a1 1 0 0 1-1 1"/><path fill="#ffbc0e" d="M133.36 200.91h28v19.74a9.19 9.19 0 0 1-9.19 9.19h-9.62a9.19 9.19 0 0 1-9.19-9.19z"/><path fill="#093f68" d="M152.17 230.84h-9.62a10.2 10.2 0 0 1-10.19-10.19v-19.74a1 1 0 0 1 1-1h28a1 1 0 0 1 1 1v19.74a10.2 10.2 0 0 1-10.19 10.19m-17.81-28.93v18.74a8.19 8.19 0 0 0 8.19 8.19h9.62a8.2 8.2 0 0 0 8.19-8.19v-18.74Z"/><rect width="178.98" height="11.75" x="110.51" y="229.84" fill="#725858" rx="5.88"/><path fill="#093f68" d="M283.61 242.59H116.39a6.88 6.88 0 1 1 0-13.75h167.22a6.88 6.88 0 1 1 0 13.75m-167.22-11.75a4.88 4.88 0 1 0 0 9.75h167.22a4.88 4.88 0 1 0 0-9.75ZM163 221h-1.63a1 1 0 0 1-1-1v-15.87a1 1 0 0 1 1-1H163a9 9 0 1 1 0 17.87m-.63-2h.63a7 7 0 1 0 0-13.91h-.63Z"/><rect width="64.28" height="54.07" x="113.22" y="112.98" fill="#fff" rx="2.5"/><path fill="#093f68" d="M175 168.05h-59.29a3.5 3.5 0 0 1-3.49-3.5v-49.08a3.49 3.49 0 0 1 3.49-3.49H175a3.5 3.5 0 0 1 3.5 3.49v49.08a3.5 3.5 0 0 1-3.5 3.5M115.71 114a1.49 1.49 0 0 0-1.49 1.49v49.08a1.5 1.5 0 0 0 1.49 1.5H175a1.5 1.5 0 0 0 1.5-1.5v-49.1A1.5 1.5 0 0 0 175 114Z"/><path fill="#68e1fd" d="M115.71 113H175a2.5 2.5 0 0 1 2.5 2.5v4.33h-64.28v-4.33a2.5 2.5 0 0 1 2.49-2.5" class="target-color"/><path fill="#093f68" d="M177.5 120.81h-64.28a1 1 0 0 1-1-1v-4.34a3.49 3.49 0 0 1 3.49-3.49H175a3.5 3.5 0 0 1 3.5 3.49v4.34a1 1 0 0 1-1 1m-63.28-2h62.28v-3.34A1.5 1.5 0 0 0 175 114h-59.29a1.49 1.49 0 0 0-1.49 1.49Z"/><circle cx="118.21" cy="116.39" r="1.34" fill="#093f68"/><circle cx="121.96" cy="116.39" r="1.34" fill="#093f68"/><circle cx="125.72" cy="116.39" r="1.34" fill="#093f68"/><path fill="#093f68" d="m137.09 138.65-9.25 4.22v.07l9.25 4.22v4.62l-14.77-6.73v-4.29l14.77-6.76ZM148.06 127.33l3.32 1.19-8.75 26.48-3.3-1.19ZM153.63 147.16l9.25-4.22v-.07l-9.25-4.22V134l14.76 6.73v4.29l-14.76 6.73Z"/></symbol>
<symbol id="javascript" viewBox="0 0 128 128"><path fill="#F0DB4F" d="M1.408 1.408h125.184v125.185H1.408z"/><path fill="#323330" d="M116.347 96.736c-.917-5.711-4.641-10.508-15.672-14.981-3.832-1.761-8.104-3.022-9.377-5.926-.452-1.69-.512-2.642-.226-3.665.821-3.32 4.784-4.355 7.925-3.403 2.023.678 3.938 2.237 5.093 4.724 5.402-3.498 5.391-3.475 9.163-5.879-1.381-2.141-2.118-3.129-3.022-4.045-3.249-3.629-7.676-5.498-14.756-5.355l-3.688.477c-3.534.893-6.902 2.748-8.877 5.235-5.926 6.724-4.236 18.492 2.975 23.335 7.104 5.332 17.54 6.545 18.873 11.531 1.297 6.104-4.486 8.08-10.234 7.378-4.236-.881-6.592-3.034-9.139-6.949-4.688 2.713-4.688 2.713-9.508 5.485 1.143 2.499 2.344 3.63 4.26 5.795 9.068 9.198 31.76 8.746 35.83-5.176.165-.478 1.261-3.666.38-8.581M69.462 58.943H57.753l-.048 30.272c0 6.438.333 12.34-.714 14.149-1.713 3.558-6.152 3.117-8.175 2.427-2.059-1.012-3.106-2.451-4.319-4.485-.333-.584-.583-1.036-.667-1.071l-9.52 5.83c1.583 3.249 3.915 6.069 6.902 7.901 4.462 2.678 10.459 3.499 16.731 2.059 4.082-1.189 7.604-3.652 9.448-7.401 2.666-4.915 2.094-10.864 2.07-17.444.06-10.735.001-21.468.001-32.237"/></symbol>
<symbol id="link" fill="none" viewBox="0 0 24 24"><path stroke="#1C274C" stroke-linecap="round" stroke-width="1.5" d="M15.197 3.355c1.673-1.68 4.25-1.816 5.757-.305s1.37 4.1-.303 5.78l-2.424 2.433M10.047 14c-1.507-1.512-1.37-4.1.302-5.779L12.5 6.062"/><path stroke="#1C274C" stroke-linecap="round" stroke-width="1.5" d="M13.954 10c1.506 1.512 1.37 4.1-.303 5.779l-2.424 2.433-2.424 2.433c-1.673 1.68-4.25 1.816-5.757.305s-1.37-4.1.303-5.78l2.424-2.433"/></symbol>
<symbol id="linkedin" viewBox="0 0 128 128"><path fill="#0076b2" d="M116 3H12a8.91 8.91 0 0 0-9 8.8v104.42a8.91 8.91 0 0 0 9 8.78h104a8.93 8.93 0 0 0 9-8.81V11.77A8.93 8.93 0 0 0 116 3"/><path fill="#fff" d="M21.06 48.73h18.11V107H21.06zm9.06-29a10.5 10.5 0 1 1-10.5 10.49 10.5 10.5 0 0 1 10.5-10.49m20.41 29h17.36v8h.24c2.42-4.58 8.32-9.41 17.13-9.41C103.6 47.28 107 59.35 107 75v32H88.89V78.65c0-6.75-.12-15.44-9.41-15.44s-10.87 7.36-10.87 15V107H50.53z"/></symbol>
<symbol id="mysql" viewBox="0 0 128 128"><path fill="#00618A" d="M116.948 97.807c-6.863-.187-12.104.452-16.585 2.341-1.273.537-3.305.552-3.513 2.147.7.733.809 1.829 1.365 2.731 1.07 1.73 2.876 4.052 4.488 5.268 1.762 1.33 3.577 2.751 5.465 3.902 3.358 2.047 7.107 3.217 10.34 5.268 1.906 1.21 3.799 2.733 5.658 4.097.92.675 1.537 1.724 2.732 2.147v-.194c-.628-.8-.79-1.898-1.366-2.733l-2.537-2.537c-2.48-3.292-5.629-6.184-8.976-8.585-2.669-1.916-8.642-4.504-9.755-7.609l-.195-.195c1.892-.214 4.107-.898 5.854-1.367 2.934-.786 5.556-.583 8.585-1.365l4.097-1.171v-.78c-1.531-1.571-2.623-3.651-4.292-5.073-4.37-3.72-9.138-7.437-14.048-10.537-2.724-1.718-6.089-2.835-8.976-4.292-.971-.491-2.677-.746-3.318-1.562-1.517-1.932-2.342-4.382-3.511-6.633-2.449-4.717-4.854-9.868-7.024-14.831-1.48-3.384-2.447-6.72-4.293-9.756-8.86-14.567-18.396-23.358-33.169-32-3.144-1.838-6.929-2.563-10.929-3.513q-3.218-.194-6.438-.391c-1.311-.546-2.673-2.149-3.902-2.927C17.811 4.565 5.257-2.16 1.633 6.682c-2.289 5.581 3.421 11.025 5.462 13.854 1.434 1.982 3.269 4.207 4.293 6.438.674 1.467.79 2.938 1.367 4.489 1.417 3.822 2.652 7.98 4.487 11.511.927 1.788 1.949 3.67 3.122 5.268.718.981 1.951 1.413 2.145 2.927-1.204 1.686-1.273 4.304-1.95 6.44-3.05 9.615-1.899 21.567 2.537 28.683 1.36 2.186 4.567 6.871 8.975 5.073 3.856-1.57 2.995-6.438 4.098-10.732.249-.973.096-1.689.585-2.341v.195l3.513 7.024c2.6 4.187 7.212 8.562 11.122 11.514 2.027 1.531 3.623 4.177 6.244 5.073v-.196h-.195c-.508-.791-1.303-1.119-1.951-1.755-1.527-1.497-3.225-3.358-4.487-5.073-3.556-4.827-6.698-10.11-9.561-15.609-1.368-2.627-2.557-5.523-3.709-8.196-.444-1.03-.438-2.589-1.364-3.122-1.263 1.958-3.122 3.542-4.098 5.854-1.561 3.696-1.762 8.204-2.341 12.878-.342.122-.19.038-.391.194-2.718-.655-3.672-3.452-4.683-5.853-2.554-6.07-3.029-15.842-.781-22.829.582-1.809 3.21-7.501 2.146-9.172-.508-1.666-2.184-2.63-3.121-3.903-1.161-1.574-2.319-3.646-3.124-5.464-2.09-4.731-3.066-10.044-5.267-14.828-1.053-2.287-2.832-4.602-4.293-6.634-1.617-2.253-3.429-3.912-4.683-6.635-.446-.968-1.051-2.518-.391-3.513.21-.671.508-.951 1.171-1.17 1.132-.873 4.284.29 5.462.779 3.129 1.3 5.741 2.538 8.392 4.294 1.271.844 2.559 2.475 4.097 2.927h1.756c2.747.631 5.824.195 8.391.975 4.536 1.378 8.601 3.523 12.292 5.854 11.246 7.102 20.442 17.21 26.732 29.269 1.012 1.942 1.45 3.794 2.341 5.854 1.798 4.153 4.063 8.426 5.852 12.488 1.786 4.052 3.526 8.141 6.05 11.513 1.327 1.772 6.451 2.723 8.781 3.708 1.632.689 4.307 1.409 5.854 2.34 2.953 1.782 5.815 3.903 8.586 5.855 1.383.975 5.64 3.116 5.852 4.879M29.729 23.466c-1.431-.027-2.443.156-3.513.389v.195h.195c.683 1.402 1.888 2.306 2.731 3.513q.975 2.05 1.952 4.097l.194-.193c1.209-.853 1.762-2.214 1.755-4.294-.484-.509-.555-1.147-.975-1.755-.556-.811-1.635-1.272-2.339-1.952"/></symbol>
<symbol id="laravel" viewBox="0 0 128 128"><path fill="#FD4F31" d="m14.887 18.316 2.72 4.523 2.507 4.182q1.952 3.255 3.901 6.51l2.662 4.44 3.882 6.465 4.749 7.936q2.054 3.427 4.112 6.853l.184.267c.199.062.357.009.521-.03q2.71-.65 5.421-1.296 4.397-1.049 8.792-2.099l4.592-1.098q4.444-1.06 8.889-2.124 4.493-1.075 8.985-2.154 2.27-.544 4.543-1.086l8.792-2.096 9.575-2.28.517-.14-.141-.28q-1.305-1.847-2.613-3.693l-2.581-3.654-2.76-3.898-2.639-3.737-2.614-3.693-2.701-3.816-2.646-3.731-1.396-1.969a3.7 3.7 0 0 1-.497-.982c-.275-.856.039-1.425.538-1.846a3 3 0 0 1 1.1-.593 17 17 0 0 1 1.702-.432c1.151-.217 2.309-.402 3.465-.594 1.304-.217 2.609-.424 3.915-.639.825-.136 1.65-.279 2.476-.419l3.367-.567a928 928 0 0 1 3.269-.543l3.568-.583 2.477-.417q1.41-.236 2.823-.468c1.174-.191 2.346-.384 3.521-.568.698-.109 1.399-.148 2.093.052.521.151.994.395 1.436.706l.61.426c.061-.141-.027-.217-.067-.298a14.1 14.1 0 0 0-3.606-4.592 13.9 13.9 0 0 0-4.773-2.616c-1.04-.33-2.109-.483-3.199-.565l-.535-.08H24.561l-.429.069c-.954.075-1.892.217-2.815.47a13.74 13.74 0 0 0-5.401 2.885 13.8 13.8 0 0 0-2.435 2.727 13.7 13.7 0 0 0-2.156 5.189l.461.803q1.55 2.588 3.101 5.173m5.241 87.825c.97.373 1.972.635 3.006.762l1.047.047c.163.021.32.05.48.05h32.288c-.052 0-.099-.149-.157-.25-1.271-2.168-2.554-4.296-3.81-6.472a1114 1114 0 0 1-4.705-8.233c-1.664-2.944-3.313-5.89-4.965-8.842a4987 4987 0 0 1-4.698-8.42c-.944-1.698-1.883-3.396-2.825-5.095l-.252-.388-.458.091q-1.361.351-2.721.709c-1.262.332-2.522.67-3.785 1q-4.252 1.105-8.503 2.207c-2.883.748-5.704 1.498-8.589 2.243-.175.046.519.062-.481.092v17.905c1 .104.136.294.158.477.066.53.085 1.064.179 1.59a13.4 13.4 0 0 0 2.224 5.378c1.664 2.392 3.852 4.103 6.567 5.149m-6.122-40.39 10.008-2.377 4.396-1.039c.732-.174 1.468-.341 2.194-.537.646-.175.727-.389.394-.973-.481-.844-.97-1.682-1.458-2.522l-4.288-7.383-4.287-7.385-4.364-7.513-3.736-6.427-1.553-2.781c-.1-.17.689-.371-.311-.461v40.135c0-.027.204-.05.333-.081zm102.671 28.688q-1.962.698-3.923 1.401l-8.93 3.202c-1.652.593-3.304 1.193-4.959 1.784q-5.057 1.804-10.117 3.604c-1.955.696-3.91 1.325-5.863 2.024-.535.193-1.063.546-1.593.546h22.431l.484-.046a12 12 0 0 0 1.691-.181 13.74 13.74 0 0 0 6.191-2.815 14 14 0 0 0 3.438-4.016c.92-1.606 1.466-3.329 1.728-5.153.023-.157.072-.328-.06-.491-.184-.014-.349.08-.518.141m-1.927-30.121q-1.485-2.028-2.968-4.058-2.043-2.805-4.083-5.609c-.553-.759-1.113-1.512-1.654-2.279-.162-.231-.348-.292-.601-.224l-.145.042-7.517 1.823-4.489 1.089-8.782 2.133-8.687 2.111q-4.516 1.092-9.028 2.186-4.441 1.08-8.881 2.16l-8.589 2.085q-2.27.55-4.537 1.103c-.223.054-.463.067-.699.247l.202.385q1.9 3.285 3.806 6.567 2.157 3.717 4.321 7.43 2.382 4.08 4.768 8.159c.913 1.562 1.821 3.127 2.742 4.685a544 544 0 0 0 3.094 5.178c.312.515.666 1.006 1.023 1.49.24.323.537.599.887.81.36.218.75.286 1.159.194.212-.048.419-.118.624-.189l.754-.279q4.11-1.407 8.223-2.809 3.209-1.092 6.421-2.177 3.188-1.08 6.376-2.155l6.329-2.137q3.235-1.093 6.471-2.189c2.647-.898 5.294-1.8 7.942-2.696q3.83-1.294 7.662-2.584c.156-.053.329-.075.459-.247l.016-.372c0-5.296-.001-10.594.006-15.891a1.16 1.16 0 0 0-.246-.738c-.801-1.077-1.588-2.162-2.379-3.244m-.439-49.907c-.595-.753-1.352-.992-2.279-.75-.404.106-.819.172-1.23.248q-2.026.369-4.052.735c-1.976.359-3.951.722-5.928 1.077q-2.347.422-4.696.833l-6.281 1.099c-.264.046-.53.092-.783.173-.37.119-.478.351-.309.699.139.284.311.556.497.812 1.298 1.79 2.604 3.576 3.908 5.362q2.698 3.695 5.397 7.388 2.284 3.125 4.57 6.248 1.796 2.455 3.593 4.908l.237.286c3.447-.853 6.889-1.703 10.39-2.568l.024-.538c0-7.208-.001-14.415.006-21.622 0-.318-.078-.574-.277-.826-.875-1.103-1.732-2.219-2.597-3.33zm2.795 34.922c-1.572.377-3.149.737-4.759 1.163.171.303 4.585 6.262 4.842 6.544l.162.089.018-.363v-2.51c.002-1.455.006-2.911.002-4.366 0-.178.049-.367-.072-.547zM12.93 127v-17.133h3.633V124h6.949v3zm24.047 0-1.242-4.078h-6.246L28.246 127h-3.914l6.047-17.203h4.441L40.891 127zm-2.11-7.125q-1.723-5.543-1.939-6.27c-.216-.727-.248-.867-.311-1.148q-.387 1.5-2.215 7.418zm11.813.551V127h-3.633v-17.133h4.992q3.492 0 5.168 1.271c1.676 1.271 1.676 2.135 1.676 3.861q0 1.512-.832 2.689c-.832 1.177-1.34 1.4-2.355 1.846q3.867 5.778 5.039 7.465h-4.031l-4.09-6.574zm0-2.953h1.172q1.722 0 2.543-.574c.821-.574.82-.984.82-1.805q0-1.219-.838-1.734c-.838-.515-1.424-.516-2.596-.516H46.68zM69.379 127l-1.242-4.078h-6.246L60.648 127h-3.914l6.047-17.203h4.441L73.293 127zm-2.109-7.125q-1.722-5.543-1.939-6.27c-.217-.727-.248-.867-.311-1.148q-.387 1.5-2.215 7.418zm17.953-10.008h3.668L83.066 127h-3.961l-5.812-17.133h3.668l3.223 10.195q.27.903.557 2.104c.287 1.201.311 1.357.357 1.67q.129-1.079.879-3.773zM100.914 127h-9.867v-17.133h9.867v2.977H94.68v3.762h5.801v2.977H94.68V124h6.234zm3.574 0v-17.133h3.633V124h6.949v3z"/></symbol>
<symbol id="nginx" viewBox="0 0 128 128"><path fill="#090" d="M24.5 50.5c-1.5 0-2.5 1.2-2.5 2.7v14.1l-15.9-16c-.8-.8-2.2-1-3.2-.6S1 52.1 1 53.2v20.7c0 1.5 1.5 2.7 3 2.7s3-1.2 3-2.7V59.8l16.1 16c.5.5 1.2.8 1.9.8.3 0 .4-.1.7-.2 1-.4 1.3-1.4 1.3-2.5V53.3c0-1.5-1-2.8-2.5-2.8m19.7 11.8c-1.4 0-2.7 1.4-2.7 2.8s1.3 2.8 2.7 2.8l6.6.4-1.5 3.7h-8.5l-4.2-7.9 4.3-8.1H50l2.1 4h5.5L54 52.1l-.8-1.1H37.6l-.7 1.2L31 62.5l-.7 1.3.7 1.3 5.8 10.3.8 1.6h15.1l.7-1.7 4.3-9 1.9-4.3h-4.4zM65 50.5c-1.4 0-3 1.3-3 2.7V60h6v-6.7c0-1.5-1.6-2.8-3-2.8m30.4.3c-1-.4-2.4-.2-3.1.6L76 67.4V53.3c0-1.5-1-2.7-2.5-2.7S71 51.8 71 53.3V74c0 1.1.7 2.1 1.7 2.5.3.1.7.2 1 .2.7 0 1.6-.3 2.1-.8l16.2-16V74c0 1.5 1 2.7 2.5 2.7S97 75.5 97 74V53.3c0-1.1-.6-2.1-1.6-2.5m21.8 12.8 8.4-8.4c1.1-1.1 1.1-2.8 0-3.8-1.1-1.1-2.8-1.1-3.8 0l-8.4 8.4-8.4-8.4c-1.1-1.1-2.8-1.1-3.8 0-1.1 1.1-1.1 2.8 0 3.8l8.4 8.4-8.4 8.4c-1.1 1.1-1.1 2.8 0 3.8.5.5 1.2.8 1.9.8s1.4-.3 1.9-.8l8.4-8.4 8.4 8.4c.5.5 1.2.8 1.9.8s1.4-.3 1.9-.8c1.1-1.1 1.1-2.8 0-3.8zM62 73.9c0 1.4 1.5 2.7 3 2.7 1.4 0 3-1.3 3-2.7V62h-6z"/></symbol>
<symbol id="top" viewBox="0 0 1024 1024"><path fill="#fff" d="M572.235 205.282v600.365a30.118 30.118 0 1 1-60.235 0V205.282L292.382 438.633a28.913 28.913 0 0 1-42.646 0 33.43 33.43 0 0 1 0-45.236l271.058-288.045a28.913 28.913 0 0 1 42.647 0L834.5 393.397a33.43 33.43 0 0 1 0 45.176 28.913 28.913 0 0 1-42.647 0l-219.618-233.23z"/></symbol>
<symbol id="python" viewBox="0 0 128 128"><g fill-rule="evenodd" clip-rule="evenodd"><path fill="#386f9f" d="M51.834 23.017c3.756 0 7.512.058 11.263-.04.995-.026 2.78.797 2.7-1.271-.061-1.683-1.622-1.074-2.568-1.089-4.237-.067-8.488-.228-12.708.037-3.003.187-3.888-.953-3.511-3.707.13-.95.005-1.934.025-2.902.132-6.446 1.69-8.64 7.942-10.23 6.888-1.75 13.937-1.692 20.806-.184 6.175 1.356 8.74 6.16 8.428 10.604-.38 5.423-.086 10.893-.091 16.343-.009 6.853-3.55 10.49-10.459 10.585-5.69.078-11.387.14-17.074-.018-6.778-.19-11.75 5.44-11.784 11.82 0 .484.083.984-.013 1.451-.488 2.343 1.462 6.13-1.022 6.826-3.78 1.062-8.206 1.062-11.54-2.311-1.13-1.14-2.082-2.417-2.584-3.893-2.679-7.865-3.102-15.83-.58-23.818 1.572-4.986 5.848-8.087 11.145-8.176 3.874-.065 7.749-.013 11.623-.013zm6.902-11.12c-.162-1.903-1.185-3.292-3.296-3.35-2.309-.06-3.502 1.336-3.505 3.608-.002 2.106 1.145 3.455 3.241 3.516 2.303.067 3.418-1.36 3.56-3.774"/><path fill="#ffcf46" d="M80.824 61.572c-4.24 0-8.482-.037-12.722.03-.955.012-2.557-.592-2.607 1.041-.056 1.852 1.663 1.37 2.755 1.381 4.24.053 8.484.098 12.723-.02 2.178-.06 3.067.357 3.23 2.925.737 11.625-4.308 12.63-13.613 14.745-5.338 1.213-11.061.57-16.325-1.788-4.353-1.947-7.024-4.753-6.687-10.007.334-5.186.39-10.439-.009-15.62-.48-6.253 3.41-10.852 10.975-10.854 5.09-.001 10.214-.389 15.26.075 7.215.662 12.872-5.592 13.12-12.864.01-.241-.052-.5.01-.724.636-2.235-1.626-5.557 1.4-6.686 4.573-1.705 9.73.087 12.066 3.557 2.945 4.369 3.343 9.51 3.819 14.53.515 5.411-1.003 10.505-3.276 15.386-1.544 3.31-4.14 4.91-7.757 4.915-4.12.003-8.239 0-12.36 0q-.002-.012-.002-.022m-1.104 10.8c-.453-2.066-1.385-3.476-3.785-3.535-2.496-.06-3.14 1.807-3.127 3.474.014 1.772.508 3.952 3.21 3.748 2.246-.172 3.341-1.563 3.702-3.687"/><path fill="#386f9f" d="M14.129 114.849c0 2.582.117 5-.055 7.397-.074 1.034 1.066 2.98-1.103 2.978-1.912 0-2.403-1.522-2.342-3.361.117-3.51.034-7.027.034-10.54v-7.998c0-4.82 1.293-6.452 5.903-7.45 4.286-.932 7.654.511 9.386 4.263 1.732 3.753 1.866 7.62.133 11.438-1.708 3.762-4.854 5.166-8.884 4.051-.918-.25-1.845-.467-3.072-.778m0-9.448c0 1.33.18 2.686-.037 3.98-.502 2.991 1.408 3.728 3.66 4.26 2.227.526 3.754-.421 4.647-2.383 1.501-3.29 1.753-6.683.613-10.162-1.012-3.092-3.349-3.454-6.077-3.07-2.694.383-3.059 2.215-2.824 4.48.1.955.018 1.93.018 2.895m28.987 9.288c-1.845.48-3.447.992-5.087 1.3-3.59.671-6.248-1.3-7.183-4.894-1.16-4.448-.178-8.879-.148-13.317.013-2.023 1.885-1.234 3.18-2.318 0 4.75.018 8.85-.006 12.947-.013 2.058.519 3.75 2.465 4.835 2.148 1.198 3.91.057 5.78-.712 1.34-.551 1.173-1.676 1.175-2.746.01-3.872-.001-7.74.012-11.612.002-.955-.097-2.122 1.313-2.075 1.257.041 1.804.788 1.783 2.158-.091 6.407.09 12.823-.17 19.221-.197 4.838-3.61 7.793-8.52 8.01-.735.031-1.505.099-1.78-.813-.419-1.404.718-1.139 1.465-1.378 5.401-1.718 6.107-2.744 5.721-8.606M65.94 98.064c1.429-.675 2.25-1.293 3.153-1.46 5.067-.937 8.95-.58 8.94 6.245-.007 3.515.002 7.031-.007 10.545-.002.984.061 1.942-1.406 2.027-1.547.092-1.887-.793-1.88-2.006.018-3.387.11-6.774.107-10.16-.002-2.63-.539-4.958-3.884-4.95-2.934.005-5.012 2.195-5.027 5.217a900 900 0 0 0 .003 9.814c.003 1.162.028 2.181-1.652 2.085-1.513-.09-1.327-1.11-1.327-2.049-.01-8.6.032-17.209-.041-25.815-.013-1.508.582-2.444 1.92-2.508 1.888-.087 1.023 1.564 1.051 2.392.123 3.371.05 6.75.05 10.623m15.99 7.711c-.191-6.715 2.994-10.3 8.76-10.092 2.894.106 5.065 1.39 6.466 3.89 2.475 4.422 2.14 8.846-.538 12.987-1.84 2.844-4.67 4.185-8.12 3.453-3.402-.72-6.066-3.783-6.548-7.353-.128-.945-.02-1.924-.02-2.885m13.32.157c-.152-1.172-.125-2.806-.613-4.264-.667-2-1.883-3.61-4.364-3.72-2.503-.108-3.752 1.355-4.587 3.38-1.311 3.179-1.226 6.371.194 9.493.912 2.011 2.32 3.483 4.76 3.075 2.403-.401 3.821-1.976 4.312-4.313.223-1.059.187-2.168.298-3.65zm7.007.895c0-1.212-.023-2.422.004-3.628.056-2.325-.685-4.901 2.45-6.089 3.59-1.356 7.148-2.372 10.762-.273 1.352.786 1.85 2.214 1.864 3.73.037 4.231-.019 8.464.038 12.695.02 1.476-.368 2.214-2.027 2.174-1.818-.043-1.435-1.283-1.423-2.273.043-3.38.278-6.757.214-10.132-.084-4.25-2.416-5.983-6.389-4.94-1.648.434-2.678 1.234-2.597 3.274.161 3.982.037 7.978.052 11.967.004 1.156.021 2.18-1.647 2.083-1.528-.088-1.278-1.145-1.29-2.062-.028-2.176-.008-4.353-.011-6.526m-43.568-9.424c-.25.296-.46.76-.68.764-3.964.055-2.864 3.014-2.966 5.209-.097 2.045 0 4.1-.029 6.151-.03 2.038.147 3.932 2.627 4.473.711.154 1.035.564.887 1.274-.163.784-.788.753-1.407.745-2.85-.05-4.963-2.065-5.047-5.015-.086-3.014.031-6.035-.04-9.046-.037-1.43.706-3.255-1.6-3.822-.253-.061-.343-.778-.508-1.187 3.076-.965 1.8-3.618 2.222-5.631.2-.953 1.105-1.214 1.96-1.295.865-.082.872.618.9 1.203.114 2.32-1.087 5.425 3.184 5.256.143-.005.31.562.497.92z"/></g></symbol>
<symbol id="vue" viewBox="0 0 128 128"><path fill="none" d="m0 8.934 49.854.158 14.167 24.47 14.432-24.47L128 8.935l-63.834 110.14zm126.98.637-24.36.02-38.476 66.053L25.691 9.592.942 9.572l63.211 107.89zm-25.149-.008-22.745.168-15.053 24.647L49.216 9.73l-22.794-.168 37.731 64.476zm-75.834-.17 23.002.009m-23.002-.01 23.002.01"/><path fill="#35495e" d="m25.997 9.393 23.002.009L64.035 34.36 79.018 9.404 102 9.398 64.15 75.053z"/><path fill="#41b883" d="m.91 9.569 25.067-.172 38.15 65.659L101.98 9.401l25.11.026-62.966 108.06z"/></symbol>
<symbol id="work" viewBox="0 0 512 512"><path fill="#fff" fill-rule="evenodd" d="m320 64 21.333 21.333V128h128v298.667H42.667V128h128V85.333L192 64zM85.333 284.935V384h341.334v-99.065c-42.625 12.196-85.299 19.824-128 22.874v33.524h-85.334V307.81c-42.701-3.05-85.375-10.678-128-22.874m341.334-114.268H85.333v69.766c56.972 17.5 113.84 26.234 170.667 26.234s113.695-8.734 170.667-26.234zm-128-64h-85.334V128h85.334z"/></symbol>
</svg>